<svg width="60" height="60" viewBox="0 0 60 60" fill="none" xmlns="http://www.w3.org/2000/svg">
<g id="Play Button">
<path id="Vector" fill-rule="evenodd" clip-rule="evenodd" d="M30 54.5455C33.2234 54.5455 36.4151 53.9106 39.3931 52.677C42.3711 51.4435 45.077 49.6355 47.3563 47.3563C49.6355 45.077 51.4435 42.3711 52.677 39.3931C53.9106 36.4151 54.5455 33.2234 54.5455 30C54.5455 26.7766 53.9106 23.5849 52.677 20.6069C51.4435 17.6289 49.6355 14.923 47.3563 12.6437C45.077 10.3645 42.3711 8.55648 39.3931 7.32296C36.4151 6.08943 33.2234 5.45455 30 5.45455C23.4901 5.45455 17.2469 8.04058 12.6437 12.6437C8.04058 17.2469 5.45455 23.4901 5.45455 30C5.45455 36.5099 8.04058 42.7531 12.6437 47.3563C17.2469 51.9594 23.4901 54.5455 30 54.5455ZM30 60C46.5682 60 60 46.5682 60 30C60 13.4318 46.5682 0 30 0C13.4318 0 0 13.4318 0 30C0 46.5682 13.4318 60 30 60Z" fill="#82BC00"/>
<path id="Vector_2" d="M40.9091 30L24.5455 41.8091V18.1909L40.9091 30Z" fill="#82BC00"/>
</g>
</svg>
